<?xml version="1.0" encoding="iso-8859-1"?>
<!-- Generator: Adobe Illustrator 19.0.0, SVG Export Plug-In . SVG Version: 6.00 Build 0)  -->
<svg version="1.1" id="Capa_1" xmlns="http://www.w3.org/2000/svg" xmlns:xlink="http://www.w3.org/1999/xlink" x="0px" y="0px"
	 viewBox="0 0 512 512" style="enable-background:new 0 0 512 512;" xml:space="preserve">
<circle style="fill:#FAD307;" cx="256" cy="256" r="256"/>
<path style="fill:#70B1E1;" d="M399.256,32H112.744c-22.108,0-40.028,17.924-40.028,40.028V428c0,28.72,23.28,52,52,52H399.26
	c22.108,0,40.028-17.924,40.028-40.028V72.032C439.288,49.924,421.364,32,399.256,32z"/>
<path style="fill:#5F87C4;" d="M399.252,479.816H123.624v-79.68h275.624c22.16,0,40-17.92,40-40v79.6
	C439.252,461.896,421.332,479.816,399.252,479.816z"/>
<path style="fill:#656D7A;" d="M112.744,32c-22.108,0-40.028,17.924-40.028,40.028V428c0,28.72,23.28,52,52,52h12.876V32H112.744z"
	/>
<rect x="137.588" y="32" style="fill:#353944;" width="14.132" height="447.64"/>
<path style="fill:#FFFFFF;" d="M399.268,400.16H120.264c-16.52,0-29.912,13.392-29.912,29.912s13.392,29.912,29.912,29.912h278.984
	c22.124,0,40.028-17.928,40.028-40.028v-59.824C439.276,382.232,421.372,400.16,399.268,400.16z"/>
<path style="fill:#DFDFDF;" d="M439.276,379.928v20.016c0,22.104-17.904,40.028-40.028,40.028H92.02
	c-2.212-6.284-2.284-13.404,0.088-20.016h307.164C421.372,419.956,439.276,402.032,439.276,379.928z"/>
<rect x="182.992" y="204.28" style="fill:#FDFEFF;" width="225.04" height="131.912"/>
<g>
	<rect x="198.828" y="229.44" style="fill:#E8E7E8;" width="193.36" height="9.376"/>
	<rect x="198.828" y="265.56" style="fill:#E8E7E8;" width="193.36" height="9.376"/>
	<rect x="198.828" y="301.64" style="fill:#E8E7E8;" width="193.36" height="9.376"/>
</g>
<polygon style="fill:#656D7A;" points="266.256,236.268 259.328,258.784 279.568,246.732 "/>
<path style="fill:#F7CFA3;" d="M278.98,204.272l-2.288,2.912c-1.608,2.048-2.828,4.376-3.596,6.864l-6.836,22.216l13.312,10.464
	l19.972-11.892c2.24-1.332,4.212-3.068,5.824-5.116l2.288-2.912L278.98,204.272z"/>
<path style="fill:#D64331;" d="M390.324,101.964L295.96,222.012c-2.076,2.64-1.616,6.46,1.024,8.536
	c2.64,2.076,6.46,1.616,8.536-1.024l94.36-120.048L390.324,101.964z"/>
<path style="fill:#F1592F;" d="M380.764,94.452L286.404,214.5c-2.076,2.64-1.616,6.46,1.024,8.536
	c2.64,2.076,6.46,1.616,8.536-1.024l94.36-120.048L380.764,94.452z"/>
<path style="fill:#D64331;" d="M371.204,86.94l-94.36,120.048c-2.076,2.64-1.616,6.46,1.024,8.536
	c2.64,2.076,6.46,1.616,8.536-1.024l94.36-120.048L371.204,86.94z"/>
<rect x="369.999" y="90.474" transform="matrix(0.7862 0.618 -0.618 0.7862 141.5905 -219.6575)" style="fill:#E8BB20;" width="36.473" height="8.636"/>
<path style="fill:#F5EA07;" d="M416.04,75.264l-15.404-12.108c-3.664-2.88-8.968-2.244-11.848,1.42l-12.24,15.572l28.676,22.54
	l12.24-15.572C420.34,83.448,419.704,78.144,416.04,75.264z"/>
<g>
</g>
<g>
</g>
<g>
</g>
<g>
</g>
<g>
</g>
<g>
</g>
<g>
</g>
<g>
</g>
<g>
</g>
<g>
</g>
<g>
</g>
<g>
</g>
<g>
</g>
<g>
</g>
<g>
</g>
</svg>
